<svg width="60" height="60" viewBox="0 0 60 60" fill="none" xmlns="http://www.w3.org/2000/svg">
<path d="M0 0V17.113H17.7613C20.4936 13.6086 24.7727 11.3489 29.5862 11.3489C34.4001 11.3489 38.6825 13.6083 41.4148 17.113H60V0H0ZM48.0139 2.54515H53.6243C55.6216 2.54515 57.2278 4.155 57.2278 6.15235V10.8509C57.2278 12.8482 55.6216 14.4581 53.6243 14.4581H48.0139C46.0166 14.4581 44.4104 12.8482 44.4104 10.8509V6.15235C44.4104 4.15505 46.0166 2.54515 48.0139 2.54515V2.54515ZM6.58815 2.6001H8.63525V14.4617H6.58815V2.6001V2.6001ZM10.1074 2.6001H12.2168V14.4617H10.1074V2.6001V2.6001ZM13.6889 2.6001H15.7361V14.4617H13.6889V2.6001V2.6001ZM5.0537 2.9187V14.4617H2.94065V6.15235C2.94065 5.43385 3.14345 4.77815 3.54855 4.1858C3.9537 3.59385 4.4567 3.1724 5.0537 2.9187V2.9187ZM29.5642 13.0481C22.2861 13.0481 16.3843 18.9234 16.3843 26.1658C16.3843 33.4081 22.2861 39.2798 29.5642 39.2798C36.8423 39.2798 42.7442 33.4081 42.7442 26.1658C42.7442 18.9235 36.8423 13.0481 29.5642 13.0481V13.0481ZM29.5642 15.7105C35.3675 15.7105 40.0708 20.391 40.0708 26.1658C40.0708 31.9405 35.3675 36.6211 29.5642 36.6211C23.7609 36.6211 19.0576 31.9405 19.0576 26.1658C19.0576 20.391 23.761 15.7105 29.5642 15.7105V15.7105ZM0 19.5374V60H60V19.5374H42.9565C43.9629 21.5301 44.5276 23.782 44.5276 26.1621C44.5276 34.3419 37.8375 40.9716 29.5862 40.9716C21.335 40.9716 14.6484 34.3419 14.6484 26.1621C14.6484 23.7814 15.2163 21.5304 16.2232 19.5374H0V19.5374Z" fill="#0D2C38"/>
</svg>
